# xmcd
#
# Track frame offsets:
#	150
#	35485
#	47481
#	69390
#	106289
#	137731
#	177002
#	199530
#	235398
#	263159
#
# Disc length: 3841 seconds
#
# Revision: 1
# Processed by: cddbd v1.5.2PL0 Copyright (c) Steve Scherf et al.
# Submitted via: audiograbber 1.83.01
#
DISCID=830eff0a
DTITLE=Grateful Dead - 79-08-04 Oakland Auditorium Arena, Oakland CA
DYEAR=1900
DGENRE=
TTITLE0=They Love Each Other
TTITLE1=Mama Tried
TTITLE2=Mexicali Blues
TTITLE3=Peggy-O
TTITLE4=Minglewood Blues
TTITLE5=Tennessee Jed
TTITLE6=El Paso
TTITLE7=Althea
TTITLE8=Lost Sailor
TTITLE9=Deal
EXTD=
EXTT0=
EXTT1=
EXTT2=
EXTT3=
EXTT4=
EXTT5=
EXTT6=
EXTT7=
EXTT8=
EXTT9=
PLAYORDER=
